<?xml version="1.0" encoding="utf-8"?>
<!-- Generator: Adobe Illustrator 16.0.4, SVG Export Plug-In . SVG Version: 6.00 Build 0)  -->
<!DOCTYPE svg PUBLIC "-//W3C//DTD SVG 1.1//EN" "http://www.w3.org/Graphics/SVG/1.1/DTD/svg11.dtd">
<svg version="1.1" id="Layer_1" xmlns="http://www.w3.org/2000/svg" xmlns:xlink="http://www.w3.org/1999/xlink" x="0px" y="0px"
   width="670px" height="94px" viewBox="0 0 670 94" enable-background="new 0 0 670 94" xml:space="preserve">
<g>
  <path fill="#E01519" d="M19.5,91H5.2V0h14.3v39h16.3V0h14.6v91H35.8V52H19.5V91z"/>
  <path fill="#E01519" d="M82.2,74.2h0.3L93.2,0h13.1l-14,91H71L57,0h14.4L82.2,74.2z"/>
  <path fill="#E01519" d="M155.3,22.5v11.8c0,14.601-7,22.5-21.3,22.5h-6.8V91H113V0h21C148.3,0,155.3,7.9,155.3,22.5z M127.3,13
    v30.8h6.8c4.6,0,7-2.1,7-8.6V21.6c0-6.5-2.5-8.6-7-8.6H127.3z"/>
  <path fill="#3E454D" d="M182.1,0h14.3v78H220v13h-37.8V0H182.1z"/>
  <path fill="#3E454D" d="M225,21.8C225,7.3,232.7-1,246.7-1s21.7,8.3,21.7,22.9v47.3c0,14.6-7.7,22.899-21.7,22.899
    S225,83.8,225,69.2V21.8z M239.3,70.1c0,6.5,2.9,9,7.4,9s7.4-2.5,7.4-9V20.9c0-6.5-2.9-9-7.4-9c-4.6,0-7.4,2.5-7.4,9V70.1z"/>
  <path fill="#3E454D" d="M319.1,57.1V69.2c0,14.6-7.3,22.899-21.3,22.899s-21.3-8.3-21.3-22.899V21.8c0-14.6,7.3-22.9,21.3-22.9
    s21.3,8.3,21.3,22.9v8.8h-13.5v-9.8c0-6.5-2.9-9-7.4-9c-4.6,0-7.4,2.5-7.4,9V69.9c0,6.5,2.9,8.8,7.4,8.8s7.4-2.3,7.4-8.8v-13h13.5
    V57.1z"/>
  <path fill="#3E454D" d="M346.6,54.7L342.2,63v28h-14.3V0h14.3v39.4h0.3L360.9,0h14.3l-19.9,40.6L375.2,91h-14.7L346.6,54.7z"/>
  <path fill="#3E454D" d="M400.3-1C414.2-1,421.4,7.3,421.4,21.9v2.9h-13.5V21c0-6.5-2.601-9-7.2-9c-4.601,0-7.2,2.5-7.2,9
    c0,6.6,2.9,11.6,12.2,19.8c12,10.5,15.7,18.101,15.7,28.5c0,14.601-7.301,22.9-21.301,22.9s-21.3-8.3-21.3-22.9v-5.6h13.5v6.5
    c0,6.5,2.9,8.8,7.4,8.8s7.399-2.3,7.399-8.8c0-6.601-2.899-11.601-12.199-19.8c-12-10.5-15.7-18.101-15.7-28.5
    C379.2,7.3,386.4-1,400.3-1z"/>
  <path fill="#3E454D" d="M459.8,64.6h0.3L469.7,0H489.6v91h-13.5V25.7h-0.3L466.2,91h-13.5l-10.4-64.4H442V91h-12.5V0h19.9
    L459.8,64.6z"/>
  <path fill="#3E454D" d="M500,0h14.3v91H500V0z"/>
  <path fill="#3E454D" d="M520.5,0h44.2v13h-15v78h-14.3V13h-15V0H520.5z"/>
  <path fill="#3E454D" d="M585.2,91h-14.3V0h14.3v39h16.2V0H616v91h-14.6V52h-16.2V91z"/>
  <path fill="#3E454D" d="M645.7-1c13.899,0,21.1,8.3,21.1,22.9v2.9h-13.5V21c0-6.5-2.6-9-7.2-9c-4.6,0-7.199,2.5-7.199,9
    c0,6.6,2.899,11.6,12.199,19.8c12,10.5,15.7,18.101,15.7,28.5c0,14.601-7.3,22.9-21.3,22.9s-21.3-8.3-21.3-22.9v-5.6h13.5v6.5
    c0,6.5,2.899,8.8,7.399,8.8s7.4-2.3,7.4-8.8c0-6.601-2.9-11.601-12.2-19.8c-12-10.5-15.7-18.101-15.7-28.5
    C624.6,7.3,631.8-1,645.7-1z"/>
</g>
</svg>
