<?xml version="1.0" encoding="utf-8"?>
<!-- Generator: Adobe Illustrator 16.0.4, SVG Export Plug-In . SVG Version: 6.00 Build 0)  -->
<!DOCTYPE svg PUBLIC "-//W3C//DTD SVG 1.1//EN" "http://www.w3.org/Graphics/SVG/1.1/DTD/svg11.dtd">
<svg version="1.1" id="Layer_1" xmlns="http://www.w3.org/2000/svg" xmlns:xlink="http://www.w3.org/1999/xlink" x="0px" y="0px"
	 width="1400px" height="400px" viewBox="0 0 1400 400" style="enable-background:new 0 0 1400 400;" xml:space="preserve">
<style type="text/css">
<![CDATA[
	.st0{fill:#FFFFFF;}
	.st1{fill:#3D444C;}
]]>
</style>
<path class="st0" d="M1414.2,178.5V400H-14.2v-51.8c4.2-3,8.3-6.1,12.3-9.4l246.2,19.4l3.2,0.4c1.3-0.5,3.2-1.3,5.2-2.4
	c1.9-1.1,3.9-2.5,6-3.9c2-1.5,4-2.9,6-4.6c4.1-3.3,8-6.9,12-10.5l12.3-11.6l49.1-46.8l0.8-0.7l0.7-0.5c1.8-1.3,2.7-1.8,4-2.6
	c1.3-0.7,2.6-1.4,3.9-2c2.7-1.2,5.4-2.2,8.5-3c3-0.8,6.4-1.4,10-1.5l6.9,0.1l25.8,0.4l51.2,0.7h0.3c0.1-0.1,0.2-0.1,0.4-0.1l1.7,0.1
	c1.1,0.1,2.2,0.2,3.2,0.3c2.1,0.3,3.9,0.8,5.8,1.3c3.7,1.2,7,3,9.8,5.1c1.5,1,2.9,2.1,4,3.3l0.9,0.8l0.4,0.4l0.3,0.2l0.7,0.8l0.9,1
	l4.1,4.4c5.5,5.8,11.4,11.4,17.4,16c3,2.4,6.1,4.4,9,6c1.5,0.8,2.8,1.5,4,2c0.6,0.2,1.1,0.4,1.6,0.5c0.2,0.1,0.4,0.1,0.5,0.2l0.3,0
	l-0.1,0c0.6,0,1.7-0.1,2.5-0.2c1.1-0.2,2.2-0.6,3.3-1c1.3-0.6,4.2-2.5,4.6-2.9c0.1-0.1,0.1-0.2,0.2-0.3c1-1.5,2.1-2.7,3.3-3.8
	c2.4-2.1,4.8-3.5,7.1-4.4c4.7-1.9,8.6-2.2,11.9-2.2h13.2l25.8,0.1l26,0.2l13,0.2l6.7,0.1l3.5,0.1l1.9,0.1c0.4,0.1,0.7,0.1,1.1,0.1
	c-0.5,0-1,0-1.5,0.1l4.6,0.4c-0.6-0.1-1.3-0.2-1.9-0.3l1.1,0.1c0.7,0.1,1.6,0.3,2,0.4c0.9,0.2,2,0.5,2.8,0.8
	c1.2,0.6,2.9,1.1,3.9,1.7c1.1,0.6,2.2,1.1,3.3,1.8l2.8,1.7c1.9,1.2,3.3,2.4,5,3.6c1.6,1.2,2.9,2.4,4.4,3.7l15,13.2l29.4,26l0.3,0
	c0.4,0.2,1.2,0.3,2.1,0.4c0.8,0.1,1.5,0.3,2.5,0.3c2,0.1,3.8,0.3,5.9,0.3h35.2l56.7-0.1h1.5l1.3,0.2c4,0.8,7.7,1.5,11.7,2.4l3,0.7
	c0.9,0.2,1.8,0.4,3,0.7l6.8,1.9l0.5,0.2l1.1,0.5c0.7,0.3,2,0.8,3,1.2l3.2,1.2c1.1,0.3,2.2,0.7,3.2,1c1,0.1,2.1,0.5,3,0.6
	c0.8,0.1,1.9,0.4,2.5,0.3l1.1,0.1l2.4,0.1l8.2,0.2c5.5,0.1,10.9,0,16.2-0.2c2.5,0,5.1-0.3,7.5-0.5c1.1-0.1,2.4-0.2,3.2-0.4l1.4-0.2
	c0.3,0,0.5-0.1,0.7-0.2l1.5-0.3l3.1-0.8c1.1-0.3,2.1-0.6,3.1-0.9c1-0.3,2-0.7,2.6-1l0.5-0.2c0.1-0.1,0.3-0.1,0.3-0.2
	c0.1-0.1,0.2-0.1,0.3-0.1l7.4-2.4l15.2-0.7c2.5-0.2,5.2-0.3,7.6-0.3h7.3l29.5-0.2l57-0.4c0.3,0,0.9-0.2,1.3-0.4
	c1-0.3,2.1-0.8,3.3-1.4c2.2-1.1,4.5-2.5,6.9-3.9c4.6-3,9.1-6.6,13.5-10.6c2.1-1.9,4.3-4.1,6.4-6.1l3.1-3.2l2.2-2.2l1.7-1.6
	l13.1-12.5l-0.7,0.8c-0.4,0.6-1,1.4-1.2,2.1l2.8-3.8c0.2-0.2,0.4-0.5,0.6-0.6c0.7-0.6,1.4-1.2,2.1-1.7c1.3-0.9,2.5-1.6,3.7-2.2
	c2.1-0.8,4.1-1.6,5.8-2c1.8-0.5,3.3-0.7,4.8-0.9c1.7-0.2,3-0.3,4.3-0.4l12.8-0.8c8.6-0.5,17.3-0.8,26-1.1c8.7-0.3,17.4-0.4,26.3-0.2
	c4.4,0.1,9.1,0.3,13.7,0.7c2.4,0.2,4.8,0.5,7.4,0.8c2.4,0.4,4.8,0.8,7.8,1.8l-1.1-0.2l1.9,0.5c0,0-0.1-0.1-0.2-0.1l0.9,0.2l2.1,0.6
	c1.4,0.4,2.9,0.8,4.3,1.2c2.8,0.9,5.6,1.9,8.5,3.2c2.8,1.3,5.7,2.9,8.8,5c1.5,1.1,3,2.2,4.5,3.8c1,0.9,2,2.1,2.9,3.4l0.3,0.3
	c0,0,0-0.1-0.1-0.2c0,0,0.1,0.1,0.1,0.1c0.3,0.2,0.7,0.4,1.1,0.5c0.4,0.2,0.8,0.3,1.4,0.4c0.6,0.2,1.2,0.2,1.8,0.2
	c0.7,0,1.4,0,2.2-0.1c0.7,0,1.6-0.3,2.5-0.5c0.8-0.2,1.8-0.5,2.8-0.8l1.1-0.5l79.3-68.1l20.4-17.7l5.1-4.4l2.8-2.2l2.7-2.1l10.5-8.6
	l41.7-33.7C1410.3,183.1,1412.3,180.8,1414.2,178.5z"/>
<path class="st1" d="M1414.2-14.2v192.7c-1.9,2.3-3.9,4.6-5.9,6.6l-41.7,33.7l-10.5,8.6l-2.7,2.1l-2.8,2.2l-5.1,4.4l-20.4,17.7
	l-79.3,68.1l-1.1,0.5c-1,0.3-1.9,0.6-2.8,0.8c-0.8,0.1-1.7,0.5-2.5,0.5c-0.8,0.1-1.5,0.1-2.2,0.1c-0.6-0.1-1.2-0.1-1.8-0.2
	c-0.6-0.1-1-0.2-1.4-0.4c-0.4-0.1-0.8-0.3-1.1-0.5c-0.1,0-0.1-0.1-0.1-0.1c0,0.1,0,0.1,0.1,0.2l-0.3-0.3c-0.9-1.3-2-2.5-2.9-3.4
	c-1.6-1.6-3.1-2.8-4.5-3.8c-3-2.1-6-3.7-8.8-5c-2.9-1.3-5.7-2.3-8.5-3.2c-1.4-0.5-2.9-0.9-4.3-1.2l-2.1-0.6l-0.9-0.2
	c0.1,0,0.1,0.1,0.2,0.1l-1.9-0.5l1.1,0.2c-3-0.9-5.4-1.4-7.8-1.8c-2.5-0.3-5-0.6-7.4-0.8c-4.7-0.4-9.3-0.6-13.7-0.7
	c-8.9-0.2-17.6-0.1-26.3,0.2c-8.7,0.3-17.4,0.6-26,1.1l-12.8,0.8c-1.3,0-2.6,0.2-4.3,0.4c-1.5,0.2-3,0.4-4.8,0.9
	c-1.7,0.4-3.7,1.1-5.8,2c-1.2,0.6-2.4,1.3-3.7,2.2c-0.7,0.5-1.5,1.1-2.1,1.7c-0.2,0.2-0.4,0.4-0.6,0.6l-2.8,3.8
	c0.3-0.7,0.8-1.5,1.2-2.1l0.7-0.8l-13.1,12.5l-1.7,1.6l-2.2,2.2l-3.1,3.2c-2.1,2.1-4.3,4.3-6.4,6.1c-4.4,4-8.9,7.6-13.5,10.6
	c-2.4,1.5-4.7,2.8-6.9,3.9c-1.1,0.5-2.2,1-3.3,1.4c-0.5,0.2-1,0.4-1.3,0.4l-57,0.4l-29.5,0.2h-7.3c-2.4,0-5.2,0-7.6,0.3l-15.2,0.7
	l-7.4,2.4c-0.1,0-0.2,0-0.3,0.1c0,0-0.2,0.1-0.3,0.2l-0.5,0.2c-0.6,0.3-1.6,0.6-2.6,1c-1,0.3-2,0.6-3.1,0.9l-3.1,0.8l-1.5,0.3
	c-0.2,0.1-0.5,0.2-0.7,0.2l-1.4,0.2c-0.8,0.2-2.1,0.3-3.2,0.4c-2.4,0.2-4.9,0.5-7.5,0.5c-5.3,0.2-10.7,0.3-16.2,0.2l-8.2-0.2
	l-2.4-0.1l-1.1-0.1c-0.6,0.1-1.6-0.2-2.5-0.3c-0.9-0.1-2-0.5-3-0.6c-1-0.3-2.1-0.7-3.2-1l-3.2-1.2c-1-0.4-2.3-1-3-1.2l-1.1-0.5
	l-0.5-0.2l-6.8-1.9c-1.2-0.3-2.1-0.5-3-0.7l-3-0.7c-4-0.9-7.7-1.6-11.7-2.4l-1.3-0.2h-1.5l-56.7,0.1h-35.2c-2.1,0-3.9-0.2-5.9-0.3
	c-1,0-1.7-0.2-2.5-0.3c-0.8-0.1-1.6-0.2-2.1-0.4l-0.3,0l-29.4-26l-15-13.2c-1.5-1.2-2.8-2.5-4.4-3.7c-1.7-1.2-3.1-2.4-5-3.6
	l-2.8-1.7c-1-0.7-2.2-1.2-3.3-1.8c-1-0.6-2.6-1.1-3.9-1.7c-0.8-0.3-1.9-0.6-2.8-0.8c-0.3-0.1-1.2-0.3-2-0.4l-1.1-0.1
	c0.6,0.1,1.3,0.2,1.9,0.3l-4.6-0.4c0.5-0.1,1-0.1,1.5-0.1c-0.3,0-0.7,0-1.1-0.1l-1.9-0.1l-3.5-0.1l-6.7-0.1l-13-0.2l-26-0.2
	l-25.8-0.1H548c-3.3,0.1-7.3,0.4-11.9,2.2c-2.3,1-4.7,2.4-7.1,4.4c-1.2,1.1-2.2,2.4-3.3,3.8c-0.1,0.1-0.1,0.2-0.2,0.3
	c-0.4,0.3-3.3,2.2-4.6,2.9c-1.1,0.4-2.2,0.7-3.3,1c-0.8,0.2-1.9,0.3-2.5,0.2l0.1,0l-0.3,0c-0.1-0.1-0.3-0.1-0.5-0.2
	c-0.5-0.1-1.1-0.3-1.6-0.5c-1.2-0.5-2.6-1.2-4-2c-2.9-1.6-6-3.7-9-6c-5.9-4.7-11.9-10.2-17.4-16l-4.1-4.4l-0.9-1l-0.7-0.8l-0.3-0.2
	l-0.4-0.4l-0.9-0.8c-1.2-1.2-2.5-2.2-4-3.3c-2.8-2.1-6.1-3.8-9.8-5.1c-1.9-0.5-3.7-1-5.8-1.3c-1-0.1-2.1-0.2-3.2-0.3l-1.7-0.1
	c-0.2,0-0.3,0-0.4,0.1h-0.3l-51.2-0.7l-25.8-0.4l-6.9-0.1c-3.6,0.1-7,0.6-10,1.5c-3.1,0.8-5.9,1.8-8.5,3c-1.3,0.6-2.6,1.3-3.9,2
	c-1.4,0.8-2.2,1.3-4,2.6l-0.7,0.5l-0.8,0.7L289,325.6l-12.3,11.6c-3.9,3.6-7.9,7.2-12,10.5c-2,1.7-4.1,3.1-6,4.6
	c-2.1,1.4-4.1,2.8-6,3.9c-2,1.1-3.9,1.9-5.2,2.4l-3.2-0.4L-1.9,338.8c-4,3.3-8.1,6.4-12.3,9.4V-14.2H1414.2z"/>
</svg>
